<svg id="hero-logo" data-name="logo-data" xmlns="http://www.w3.org/2000/svg" viewBox="0 0 110.05 31.72"><defs><style>.cls-1{fill:#231815;}</style></defs><title>McQuic</title><path class="cls-1" d="M198.91,201.13h6.62l3.53,9.57c.43,1.3.79,2.74,1.22,4.1h.15c.43-1.36.79-2.8,1.22-4.1l3.38-9.57h6.63v23.39H216v-6.91a83.33,83.33,0,0,1,.79-8.35h-.14l-1.94,5.62-2.88,7.73h-3.32l-2.88-7.73-1.87-5.62h-.14a80.49,80.49,0,0,1,.79,8.35v6.91h-5.54Z" transform="translate(-198.91 -198.53)"/><path class="cls-1" d="M225.4,215.52c0-6,4.54-9.43,9.65-9.43a7.94,7.94,0,0,1,5.26,1.87l-2.88,4a3.08,3.08,0,0,0-2-.86c-2.3,0-3.67,1.73-3.67,4.46s1.51,4.47,3.45,4.47a5,5,0,0,0,2.88-1.16l2.38,4a9.06,9.06,0,0,1-6,2.08C229.36,225,225.4,221.5,225.4,215.52Z" transform="translate(-198.91 -198.53)"/><path class="cls-1" d="M253.88,226.68h-.11l0,0a.57.57,0,0,0-.08-.13l-.1-.09a.46.46,0,0,1-.17-.29v0l-.33-.43a11.77,11.77,0,0,1-1.33.34,8.39,8.39,0,0,1-1.44.12h-1.55a6.79,6.79,0,0,1-2.5-.41,5.26,5.26,0,0,1-1.85-1.21l-.58-.57a6.12,6.12,0,0,1-2.36-3.17,14,14,0,0,1-.74-4.68,20.21,20.21,0,0,1,.43-4.28l0-.18a27.67,27.67,0,0,1,1.39-4.58,17.94,17.94,0,0,1,2.34-4.24,12.1,12.1,0,0,1,3.4-3.14,8.55,8.55,0,0,1,4.57-1.22h1.48a6.36,6.36,0,0,1,3.13.7,5.63,5.63,0,0,1,2,1.86l.51.46a6.5,6.5,0,0,1,1.69,3,14.64,14.64,0,0,1,.5,3.95,20.28,20.28,0,0,1-.12,2.23c-.09.72-.19,1.41-.31,2.09l-.14.36h0a28.12,28.12,0,0,1-1.33,4.53,16.65,16.65,0,0,1-2.19,4q.75,1.52,1.65,3l2,3.24H255.1ZM249,224.45a7.43,7.43,0,0,0,3.45-.79c.24.41.48.78.7,1.13s.48.7.74,1.06l.08.15a.41.41,0,0,0,.1.14h5.58c-.57-.91-1.13-1.86-1.67-2.84s-1.08-2-1.6-3.13a18.58,18.58,0,0,0,2.21-3.95,26.76,26.76,0,0,0,1.35-4.44l.07-.22c.15-.72.26-1.45.34-2.19a18.69,18.69,0,0,0,.13-2.24,15.15,15.15,0,0,0-.3-3.07,7.44,7.44,0,0,0-1-2.56,5.53,5.53,0,0,0-1.87-1.76,5.63,5.63,0,0,0-2.88-.67h-1.48a8.11,8.11,0,0,0-4.37,1.17,11.75,11.75,0,0,0-3.24,3,16.14,16.14,0,0,0-2.2,4,29.38,29.38,0,0,0-1.28,4.32l-.07.22a19.51,19.51,0,0,0-.47,4.39,14.86,14.86,0,0,0,.34,3.22,8,8,0,0,0,1.09,2.63,5.23,5.23,0,0,0,1.9,1.78,5.77,5.77,0,0,0,2.83.65Zm4.57-11a2,2,0,0,1-.07-.61h-5.66a24.28,24.28,0,0,0,1,3c.4,1.05.85,2.13,1.33,3.26a1.44,1.44,0,0,1-.72.14h-.29a1.59,1.59,0,0,1-1.08-.37,2.59,2.59,0,0,1-.67-1,6.58,6.58,0,0,1-.34-1.39,12,12,0,0,1-.1-1.6,17.72,17.72,0,0,1,.1-2,11.42,11.42,0,0,1,.25-1.48,16.58,16.58,0,0,1,.65-2.12,12,12,0,0,1,1.08-2.18,8.42,8.42,0,0,1,1.5-1.78,4.25,4.25,0,0,1,1.89-1h.28a2.6,2.6,0,0,1,1.7,1.64,7.78,7.78,0,0,1,.46,2.75,16.43,16.43,0,0,1-.28,2.7c-.05.15-.09.27-.11.36-.07.27-.15.57-.22.9a7.64,7.64,0,0,1-.39,1.23A1.46,1.46,0,0,1,253.52,213.4Zm-4.21,5.25a14.92,14.92,0,0,1-.65-1.58,4.59,4.59,0,0,0,.07.81c.05.28.1.53.15.77Zm2.8-11.73a7.7,7.7,0,0,0-1.35,1.53,10.65,10.65,0,0,0-1,1.89,12.14,12.14,0,0,0-.63,1.91h4.6a.28.28,0,0,0,0-.15.25.25,0,0,1,0-.14.83.83,0,0,0,0-.22.39.39,0,0,1,0-.21h0a.16.16,0,0,1,0-.11.14.14,0,0,1,0-.07.31.31,0,0,0,0-.11c.09-.55.16-1.05.21-1.48a9.47,9.47,0,0,0,.07-1.08,9.14,9.14,0,0,0-.1-1.4,5.23,5.23,0,0,0-.36-1.23h0A4.09,4.09,0,0,0,252.11,206.92Z" transform="translate(-198.91 -198.53)"/><path class="cls-1" d="M269.83,217.54c0,.33,0,.63,0,.9s.05.53.09.79H270a1.85,1.85,0,0,0,1.42-.81,9.23,9.23,0,0,0,1.19-1.89,16,16,0,0,0,.87-2.18c.22-.73.39-1.29.48-1.67l2.41-11.41h6.12l0,.21,1.22,1.23-2.55,11.84a23.43,23.43,0,0,1-1.37,4.28,15.8,15.8,0,0,1-2.22,3.73,11.16,11.16,0,0,1-3,2.65,7.27,7.27,0,0,1-3.76,1H270a6,6,0,0,1-2.34-.41,5.29,5.29,0,0,1-1.73-1.13l-.57-.54a5.78,5.78,0,0,1-2.2-2.88,12.17,12.17,0,0,1-.68-4.22,18.81,18.81,0,0,1,.43-4l2.48-11.77h6.12l0,.21,1.22,1.23-2.48,11.48c-.08.34-.15.82-.24,1.46A15,15,0,0,0,269.83,217.54Zm-.36,6.91a6.9,6.9,0,0,0,3.61-1,10.14,10.14,0,0,0,2.88-2.56,15.79,15.79,0,0,0,2.11-3.62,23,23,0,0,0,1.33-4.15l2.45-11.34h-5l-2.34,11c-.09.4-.27,1-.52,1.78a16.9,16.9,0,0,1-.95,2.32,9.61,9.61,0,0,1-1.35,2,2.27,2.27,0,0,1-1.68.86H270a1.38,1.38,0,0,1-.92-.31,2,2,0,0,1-.59-.79,4,4,0,0,1-.31-1.13,9.69,9.69,0,0,1-.09-1.33,14.07,14.07,0,0,1,.13-2c.08-.63.16-1.12.23-1.45l2.38-11h-5l-2.41,11.34A18.36,18.36,0,0,0,263,217a12.08,12.08,0,0,0,.32,2.87,7.06,7.06,0,0,0,1,2.35,5,5,0,0,0,1.76,1.61,5.29,5.29,0,0,0,2.56.59Z" transform="translate(-198.91 -198.53)"/><path class="cls-1" d="M291.17,201.48l1.23,1.23-3.31,15.58a10.64,10.64,0,0,0-.22,1.08c-.07.44-.14.9-.2,1.39s-.11,1-.14,1.51-.06,1-.06,1.46v.68a1.66,1.66,0,0,0,0,.33V225a.77.77,0,0,0,0,.15.65.65,0,0,1,0,.11l-7.71,5L279.58,229l-.32.21,5.94-27.93h6Zm-.64.33h-4.86L280.09,228l6.69-4.36a.22.22,0,0,1,0-.14,1.45,1.45,0,0,1,0-.4v-.68c0-.46,0-1,.05-1.48s.09-1,.15-1.55.12-1,.2-1.4.14-.78.21-1Z" transform="translate(-198.91 -198.53)"/><path class="cls-1" d="M294,224.16a5.61,5.61,0,0,1-2.25-2.91A12.33,12.33,0,0,1,291,217a17.85,17.85,0,0,1,.44-3.92l0-.18a20.39,20.39,0,0,1,1.28-4,19,19,0,0,1,2.12-3.73,12.26,12.26,0,0,1,2.78-2.75,5.53,5.53,0,0,1,3.25-1.08h6.88l-.07.21,1.26,1.23-1.23,5.5h-4.6a3.66,3.66,0,0,0-1.57.87,7.49,7.49,0,0,0-1.26,1.51,11.24,11.24,0,0,0-.95,1.82,9.91,9.91,0,0,0-.58,1.78q-.07.47-.18,1.26a12.36,12.36,0,0,0-.11,1.62c0,.41,0,.79,0,1.13a4.54,4.54,0,0,0,.18,1h5.22l0,.22,1.23,1.22-1.19,5.54h-5.33a6.21,6.21,0,0,1-2.38-.41,5.25,5.25,0,0,1-1.72-1.13ZM306,206.45l1-4.64h-6.2a5.2,5.2,0,0,0-3.06,1,11.54,11.54,0,0,0-2.61,2.65A19.77,19.77,0,0,0,292,213l0,.18a17.35,17.35,0,0,0-.44,3.81,12.21,12.21,0,0,0,.33,2.9,7.19,7.19,0,0,0,1,2.38,5,5,0,0,0,1.76,1.62,5.47,5.47,0,0,0,2.63.59h5l1-4.68h-4.42a1.52,1.52,0,0,1-1-.36,2.4,2.4,0,0,1-.65-.94,5.3,5.3,0,0,1-.32-1.29,11.6,11.6,0,0,1-.09-1.44,11.25,11.25,0,0,1,.11-1.69q.1-.8.18-1.26a10.54,10.54,0,0,1,.59-1.88,11.72,11.72,0,0,1,1-1.92,7.37,7.37,0,0,1,1.38-1.6,4.39,4.39,0,0,1,1.73-.94Z" transform="translate(-198.91 -198.53)"/></svg>
