<svg xmlns="http://www.w3.org/2000/svg" viewBox="0 0 108.54 31.72"><defs><style>.a{fill:#24292f;}</style></defs><title>McQuic-light</title><path class="a" d="M198.91,201.13h6.62l3.53,9.57c.43,1.3.79,2.74,1.22,4.1h.15c.43-1.36.79-2.8,1.22-4.1l3.38-9.57h6.63v23.39H216v-6.91a83.33,83.33,0,0,1,.79-8.35h-.14l-1.94,5.62-2.88,7.73h-3.32l-2.88-7.73-1.87-5.62h-.14a80.49,80.49,0,0,1,.79,8.35v6.91h-5.54Z" transform="translate(-198.91 -198.53)"/><path class="a" d="M223.24,215.52c0-6,4.54-9.43,9.65-9.43a7.94,7.94,0,0,1,5.26,1.87l-2.88,4a3.08,3.08,0,0,0-2-.86c-2.3,0-3.67,1.73-3.67,4.46S231.09,220,233,220a5,5,0,0,0,2.88-1.16l2.38,4a9.06,9.06,0,0,1-6,2.08C227.2,225,223.24,221.5,223.24,215.52Z" transform="translate(-198.91 -198.53)"/><path class="a" d="M252.37,226.68h-.11l0,0a.79.79,0,0,0-.18-.22.52.52,0,0,1-.18-.29v0l-.32-.43a11.77,11.77,0,0,1-1.33.34,8.39,8.39,0,0,1-1.44.12h-1.55a6.75,6.75,0,0,1-2.5-.41,5.39,5.39,0,0,1-1.86-1.21l-.57-.57a6.12,6.12,0,0,1-2.36-3.17,14,14,0,0,1-.74-4.68,19.57,19.57,0,0,1,.43-4.28l0-.18a28.59,28.59,0,0,1,1.38-4.58,18.68,18.68,0,0,1,2.34-4.24,12.27,12.27,0,0,1,3.41-3.14,8.55,8.55,0,0,1,4.57-1.22h1.47a6.37,6.37,0,0,1,3.14.7,5.63,5.63,0,0,1,2,1.86l.51.46a6.5,6.5,0,0,1,1.69,3,15,15,0,0,1,.5,3.95,20.28,20.28,0,0,1-.12,2.23c-.09.72-.19,1.41-.31,2.09l-.14.36h0a28.12,28.12,0,0,1-1.33,4.53,16.34,16.34,0,0,1-2.2,4c.51,1,1.06,2,1.66,3l1.94,3.24h-6.62Zm-4.94-2.23a7.44,7.44,0,0,0,3.46-.79c.24.41.47.78.7,1.13s.48.7.74,1.06l.07.15a.67.67,0,0,0,.11.14h5.58c-.58-.91-1.13-1.86-1.67-2.84s-1.08-2-1.61-3.13a18.62,18.62,0,0,0,2.22-3.95,26.76,26.76,0,0,0,1.35-4.44l.07-.22c.14-.72.26-1.45.34-2.19a18.69,18.69,0,0,0,.13-2.24,14.46,14.46,0,0,0-.31-3.07,7.24,7.24,0,0,0-1-2.56,5.47,5.47,0,0,0-1.88-1.76,5.58,5.58,0,0,0-2.88-.67h-1.47a8.15,8.15,0,0,0-4.38,1.17,11.75,11.75,0,0,0-3.24,3,16.12,16.12,0,0,0-2.19,4,28.21,28.21,0,0,0-1.28,4.32l-.07.22a19.51,19.51,0,0,0-.47,4.39,14.27,14.27,0,0,0,.34,3.22,8.18,8.18,0,0,0,1.08,2.63,5.26,5.26,0,0,0,1.91,1.78,5.77,5.77,0,0,0,2.83.65Zm4.58-11a2,2,0,0,1-.08-.61h-5.65a26,26,0,0,0,1,3c.41,1.05.86,2.13,1.34,3.26a1.44,1.44,0,0,1-.72.14h-.29a1.59,1.59,0,0,1-1.08-.37,2.59,2.59,0,0,1-.67-1,6.58,6.58,0,0,1-.34-1.39,11.94,11.94,0,0,1-.11-1.6,17.63,17.63,0,0,1,.11-2,11.42,11.42,0,0,1,.25-1.48,16.58,16.58,0,0,1,.65-2.12,12,12,0,0,1,1.08-2.18A8.38,8.38,0,0,1,249,205.3a4.36,4.36,0,0,1,1.89-1h.29a2.56,2.56,0,0,1,1.69,1.64,7.56,7.56,0,0,1,.47,2.75,15.56,15.56,0,0,1-.29,2.7c0,.15-.08.27-.1.36-.08.27-.15.57-.22.9a6.89,6.89,0,0,1-.4,1.23A1.41,1.41,0,0,1,252,213.4Zm-4.22,5.25a14.89,14.89,0,0,1-.64-1.58,4.59,4.59,0,0,0,.07.81c.05.28.09.53.14.77Zm2.81-11.73a7.7,7.7,0,0,0-1.35,1.53,11.39,11.39,0,0,0-1,1.89,14.65,14.65,0,0,0-.63,1.91h4.61a.28.28,0,0,0,0-.15.35.35,0,0,1,0-.14.57.57,0,0,0,0-.22.39.39,0,0,1,0-.21h0a.12.12,0,0,1,0-.11.08.08,0,0,1,0-.07.34.34,0,0,0,0-.11c.1-.55.17-1.05.22-1.48a9.47,9.47,0,0,0,.07-1.08,8,8,0,0,0-.11-1.4,4.43,4.43,0,0,0-.36-1.23h0A4.09,4.09,0,0,0,250.6,206.92Z" transform="translate(-198.91 -198.53)"/><path class="a" d="M268.31,217.54c0,.33,0,.63,0,.9a5.31,5.31,0,0,0,.09.79h.11a1.86,1.86,0,0,0,1.42-.81,9.23,9.23,0,0,0,1.19-1.89,14.71,14.71,0,0,0,.86-2.18c.23-.73.39-1.29.49-1.67l2.41-11.41H281l0,.21,1.22,1.23-2.56,11.84a22.65,22.65,0,0,1-1.36,4.28,15.8,15.8,0,0,1-2.22,3.73,11.16,11.16,0,0,1-3,2.65,7.3,7.3,0,0,1-3.76,1h-.83a6,6,0,0,1-2.34-.41,5.29,5.29,0,0,1-1.73-1.13l-.58-.54a5.76,5.76,0,0,1-2.19-2.88,12.17,12.17,0,0,1-.69-4.22,18.83,18.83,0,0,1,.44-4l2.48-11.77H270l0,.21,1.23,1.23-2.49,11.48c-.07.34-.15.82-.23,1.46A15,15,0,0,0,268.31,217.54Zm-.36,6.91a6.94,6.94,0,0,0,3.62-1,10.42,10.42,0,0,0,2.88-2.56,15.79,15.79,0,0,0,2.11-3.62,23.86,23.86,0,0,0,1.33-4.15l2.45-11.34h-5l-2.34,11c-.1.4-.27,1-.52,1.78a15.8,15.8,0,0,1-1,2.32,8.9,8.9,0,0,1-1.35,2,2.24,2.24,0,0,1-1.67.86h-.07a1.38,1.38,0,0,1-.92-.31,2,2,0,0,1-.59-.79,4,4,0,0,1-.31-1.13,9.69,9.69,0,0,1-.09-1.33,14.07,14.07,0,0,1,.13-2c.08-.63.16-1.12.23-1.45l2.38-11h-5l-2.41,11.34a18.4,18.4,0,0,0-.44,3.88,12.07,12.07,0,0,0,.33,2.87,6.86,6.86,0,0,0,1,2.35,5,5,0,0,0,1.76,1.61,5.29,5.29,0,0,0,2.56.59Z" transform="translate(-198.91 -198.53)"/><path class="a" d="M289.66,201.48l1.23,1.23-3.32,15.58q-.1.44-.21,1.08c-.07.44-.14.9-.2,1.39s-.11,1-.14,1.51-.06,1-.06,1.46v.68a1.15,1.15,0,0,0,0,.33V225a.39.39,0,0,0,0,.15.49.49,0,0,1,0,.11l-7.7,5L278.07,229l-.32.21,5.94-27.93h6Zm-.65.33h-4.86L278.57,228l6.7-4.36a.21.21,0,0,1,0-.14,2.1,2.1,0,0,1,0-.4v-.68c0-.46,0-1,.05-1.48s.09-1,.15-1.55.12-1,.19-1.4.15-.78.22-1Z" transform="translate(-198.91 -198.53)"/><path class="a" d="M292.43,224.16a5.72,5.72,0,0,1-2.25-2.91,12.57,12.57,0,0,1-.7-4.29,18.46,18.46,0,0,1,.43-3.92l0-.18a19.75,19.75,0,0,1,1.28-4,18.53,18.53,0,0,1,2.12-3.73,12.23,12.23,0,0,1,2.77-2.75,5.56,5.56,0,0,1,3.26-1.08h6.88l-.07.21,1.26,1.23-1.23,5.5h-4.61a3.68,3.68,0,0,0-1.56.87,7.49,7.49,0,0,0-1.26,1.51,12.14,12.14,0,0,0-1,1.82,10.69,10.69,0,0,0-.57,1.78q-.08.47-.18,1.26a12.36,12.36,0,0,0-.11,1.62c0,.41,0,.79,0,1.13a4.54,4.54,0,0,0,.18,1h5.22l0,.22,1.22,1.22-1.18,5.54h-5.33a6.18,6.18,0,0,1-2.38-.41,5.29,5.29,0,0,1-1.73-1.13Zm12.1-17.71,1-4.64h-6.19a5.2,5.2,0,0,0-3.06,1,11.54,11.54,0,0,0-2.61,2.65,19.77,19.77,0,0,0-3.22,7.49l0,.18A18,18,0,0,0,290,217a12.21,12.21,0,0,0,.33,2.9,7.39,7.39,0,0,0,1,2.38,5.09,5.09,0,0,0,1.77,1.62,5.44,5.44,0,0,0,2.63.59h5l1-4.68h-4.43a1.5,1.5,0,0,1-1-.36,2.4,2.4,0,0,1-.65-.94,4.88,4.88,0,0,1-.32-1.29,11.6,11.6,0,0,1-.09-1.44,12.81,12.81,0,0,1,.1-1.69q.12-.8.18-1.26a10.63,10.63,0,0,1,.6-1.88,11,11,0,0,1,1-1.92,7.11,7.11,0,0,1,1.38-1.6,4.39,4.39,0,0,1,1.73-.94Z" transform="translate(-198.91 -198.53)"/></svg>
