<?xml version="1.0" encoding="UTF-8"?>
<!-- Created with Inkscape (http://www.inkscape.org/) -->
<svg width="216.25mm" height="5.6741mm" version="1.1" viewBox="0 0 216.25 5.6741" xmlns="http://www.w3.org/2000/svg">
 <g transform="translate(-5.188 -197.09)" fill="#24292f" stroke-width=".26458">
  <path d="m5.188 197.19h2.1704v0.11472h-0.10852q-0.24495 0-0.33796 0.0527-0.089917 0.0496-0.13022 0.13953-0.037207 0.0899-0.037207 0.44958v2.0588q0 0.56431 0.083716 0.74724 0.086816 0.18294 0.28215 0.30386 0.19534 0.12092 0.49299 0.12092 0.34106 0 0.57981-0.15192 0.24185-0.15503 0.35967-0.42478 0.12092-0.26976 0.12092-0.93948v-1.7146q0-0.28215-0.058911-0.40307-0.058911-0.12093-0.14883-0.16743-0.13953-0.0713-0.39377-0.0713v-0.11472h1.4542v0.11472h-0.086816q-0.17673 0-0.29456 0.0713t-0.17053 0.21394q-0.040308 0.0992-0.040308 0.35656v1.5968q0 0.74104-0.099219 1.0697-0.096118 0.32866-0.47439 0.60461-0.37827 0.27595-1.0325 0.27595-0.5457 0-0.84336-0.14572-0.40618-0.19844-0.57361-0.5085t-0.16743-0.83406v-2.0588q0-0.36276-0.040308-0.44958-0.040308-0.0899-0.13953-0.14263-0.099219-0.0527-0.36587-0.0496z"/>
  <path d="m11.023 198.49v0.37517q0.22324-0.24185 0.42788-0.35037 0.20464-0.11162 0.44028-0.11162 0.28215 0 0.46819 0.15813 0.18604 0.15503 0.24805 0.38757 0.04961 0.17674 0.04961 0.67903v1.1286q0 0.33486 0.05891 0.41857 0.06201 0.0806 0.25425 0.10232v0.11163h-1.4666v-0.11163q0.16433-0.0217 0.23564-0.13642 0.04961-0.0775 0.04961-0.38447v-1.2898q0-0.35657-0.0279-0.44958-0.02791-0.093-0.09612-0.14263-0.06511-0.0527-0.14573-0.0527-0.26665 0-0.49609 0.38137v1.5534q0 0.32556 0.05891 0.41237 0.06201 0.0868 0.22634 0.10852v0.11163h-1.4666v-0.11163q0.18293-0.0186 0.26045-0.11782 0.05271-0.0682 0.05271-0.40307v-1.6371q0-0.32867-0.06201-0.40928-0.05891-0.0806-0.25115-0.10542v-0.11472z"/>
  <path d="m14.068 197.09q0.20154 0 0.34106 0.14263 0.13953 0.13953 0.13953 0.33796 0 0.19844-0.14263 0.33797-0.13953 0.13952-0.33796 0.13952-0.19844 0-0.33796-0.13952-0.13953-0.13953-0.13953-0.33797 0-0.19843 0.13953-0.33796 0.13953-0.14263 0.33796-0.14263zm0.43408 1.4046v2.2975q0 0.30696 0.07131 0.39378 0.07131 0.0837 0.27905 0.0961v0.11163h-1.5658v-0.11163q0.19224-6e-3 0.28525-0.11162 0.06201-0.0713 0.06201-0.37827v-1.6929q0-0.30696-0.07131-0.39067-0.07131-0.0868-0.27595-0.0992v-0.11472z"/>
  <path d="m16.406 198.8v2.0123q0 0.29145 0.06201 0.36586 0.09922 0.11473 0.36587 0.10542v0.11163h-1.7084v-0.11163q0.19534-3e-3 0.27595-0.0434 0.08372-0.0434 0.11472-0.11783 0.03101-0.0744 0.03101-0.31005v-2.0123h-0.42168v-0.30385h0.42168v-0.21394l-0.0031-0.14573q0-0.44648 0.32556-0.74414 0.32866-0.29766 0.88677-0.29766 0.38137 0 0.56431 0.14263 0.18604 0.14263 0.18604 0.31626 0 0.13953-0.11472 0.24185-0.11472 0.10231-0.30386 0.10231-0.16123 0-0.25735-0.0837-0.09302-0.0837-0.09302-0.18604 0-0.0279 0.0186-0.11472 0.0124-0.0527 0.0124-0.0992 0-0.0651-0.03721-0.0961-0.04961-0.0465-0.12092-0.0465-0.08992 0-0.15193 0.0744-0.05891 0.0744-0.05891 0.23875l0.0062 0.5426v0.36897h0.42788v0.30385z"/>
  <path d="m17.947 197.09q0.20154 0 0.34106 0.14263 0.13953 0.13953 0.13953 0.33796 0 0.19844-0.14263 0.33797-0.13953 0.13952-0.33796 0.13952-0.19844 0-0.33796-0.13952-0.13953-0.13953-0.13953-0.33797 0-0.19843 0.13953-0.33796 0.13953-0.14263 0.33796-0.14263zm0.43408 1.4046v2.2975q0 0.30696 0.07131 0.39378 0.07131 0.0837 0.27905 0.0961v0.11163h-1.5658v-0.11163q0.19224-6e-3 0.28525-0.11162 0.06201-0.0713 0.06201-0.37827v-1.6929q0-0.30696-0.07131-0.39067-0.07131-0.0868-0.27595-0.0992v-0.11472z"/>
  <path d="m21.469 199.84h-1.5906q0.02791 0.57671 0.30696 0.91157 0.21394 0.25735 0.5147 0.25735 0.18604 0 0.33796-0.10232 0.15193-0.10542 0.32556-0.37517l0.10542 0.0682q-0.23564 0.48059-0.5209 0.68212-0.28525 0.19844-0.66042 0.19844-0.64492 0-0.97668-0.49609-0.26665-0.39998-0.26665-0.99219 0-0.72554 0.39067-1.1534 0.39377-0.43098 0.92087-0.43098 0.44028 0 0.76274 0.36277 0.32556 0.35967 0.35037 1.0697zm-0.76274-0.20774q0-0.49919-0.05581-0.68523-0.05271-0.18603-0.16743-0.28215-0.06511-0.0558-0.17363-0.0558-0.16123 0-0.26355 0.15813-0.18293 0.27595-0.18293 0.75654v0.10852z"/>
  <path d="m24.65 197.19v3.3362q0 0.33797 0.0186 0.39998 0.02481 0.10232 0.09302 0.15193 0.07131 0.0496 0.24495 0.062v0.10232l-1.2247 0.23874v-0.45888q-0.22014 0.26665-0.39378 0.36276-0.17053 0.0961-0.38757 0.0961-0.555 0-0.87747-0.49609-0.26045-0.40308-0.26045-0.98909 0-0.46819 0.16123-0.83716 0.16123-0.37207 0.44028-0.5612 0.28215-0.18914 0.60461-0.18914 0.20774 0 0.36897 0.0806 0.16123 0.0806 0.34416 0.28215v-0.87437q0-0.33176-0.02791-0.39997-0.03721-0.0899-0.11162-0.13333-0.07441-0.0434-0.27905-0.0434v-0.13023zm-0.86816 1.9658q-0.22944-0.44028-0.56121-0.44028-0.11472 0-0.18914 0.062-0.11472 0.0961-0.18914 0.33796-0.07131 0.24185-0.07131 0.74104 0 0.54881 0.08062 0.81236 0.08061 0.26355 0.22014 0.38137 0.07131 0.0589 0.19534 0.0589 0.27285 0 0.5147-0.42788z"/>
  <path d="m29.763 199.96 1.141-2.7719h1.7115v0.11472h-0.13643q-0.18604 0-0.29766 0.0651-0.07751 0.0434-0.12402 0.14573-0.03411 0.0744-0.03411 0.38758v2.7719q0 0.32246 0.03411 0.40308 0.03411 0.0806 0.13953 0.14262 0.10542 0.0589 0.28215 0.0589h0.13643v0.11473h-2.1952v-0.11473h0.13643q0.18604 0 0.29766-0.0651 0.07752-0.0434 0.12402-0.14883 0.03411-0.0744 0.03411-0.39067v-3.1161l-1.6123 3.8354h-0.07441l-1.6371-3.8075v2.9611q0 0.31005 0.0155 0.38137 0.04031 0.15503 0.17363 0.25425 0.13642 0.0961 0.42478 0.0961v0.11473h-1.4387v-0.11473h0.04341q0.13953 3e-3 0.26045-0.0434 0.12092-0.0496 0.18294-0.13023 0.06201-0.0806 0.09612-0.22634 0.0062-0.0341 0.0062-0.31626v-2.6603q0-0.31936-0.03411-0.39688-0.03411-0.0806-0.13953-0.13953-0.10542-0.062-0.28215-0.062h-0.13332v-0.11472h1.7177z"/>
  <path d="m35.744 198.49v2.2696q0 0.33176 0.06201 0.41547 0.06201 0.0806 0.25115 0.10232v0.11163h-1.1813v-0.38758q-0.20774 0.24805-0.41548 0.36277-0.20774 0.11162-0.46509 0.11162-0.24495 0-0.43718-0.14883-0.18914-0.15193-0.25425-0.35346-0.06511-0.20154-0.06511-0.70384v-1.1503q0-0.32867-0.06201-0.40928-0.05891-0.0806-0.25115-0.10542v-0.11472h1.1813v1.9813q0 0.31006 0.0279 0.39998 0.03101 0.0899 0.09302 0.13642 0.06511 0.0465 0.14883 0.0465 0.11162 0 0.20154-0.0589 0.12402-0.0806 0.29766-0.32556v-1.5503q0-0.32867-0.06201-0.40928-0.05891-0.0806-0.25115-0.10542v-0.11472z"/>
  <path d="m37.611 197.19v3.6029q0 0.30696 0.07131 0.39378 0.07131 0.0837 0.27905 0.0961v0.11163h-1.5658v-0.11163q0.19224-6e-3 0.28525-0.11162 0.06201-0.0713 0.06201-0.37827v-3.0014q0-0.30385-0.07131-0.38757-0.07131-0.0868-0.27595-0.0992v-0.11472z"/>
  <path d="m39.391 197.43v1.0604h0.68833v0.30696h-0.68833v1.789q0 0.25115 0.0217 0.32557 0.02481 0.0713 0.08372 0.11782 0.05891 0.0434 0.10852 0.0434 0.20154 0 0.38137-0.30696l0.09302 0.0682q-0.25115 0.59531-0.81545 0.59531-0.27595 0-0.46819-0.15193-0.18914-0.15503-0.24184-0.34416-0.03101-0.10542-0.03101-0.57051v-1.5658h-0.37827v-0.10852q0.39067-0.27596 0.66353-0.57981 0.27595-0.30386 0.48059-0.67903z"/>
  <path d="m41.052 197.09q0.20154 0 0.34106 0.14263 0.13953 0.13953 0.13953 0.33796 0 0.19844-0.14263 0.33797-0.13953 0.13952-0.33796 0.13952-0.19844 0-0.33796-0.13952-0.13953-0.13953-0.13953-0.33797 0-0.19843 0.13953-0.33796 0.13953-0.14263 0.33796-0.14263zm0.43408 1.4046v2.2975q0 0.30696 0.07131 0.39378 0.07131 0.0837 0.27905 0.0961v0.11163h-1.5658v-0.11163q0.19224-6e-3 0.28525-0.11162 0.06201-0.0713 0.06201-0.37827v-1.6929q0-0.30696-0.07131-0.39067-0.07131-0.0868-0.27595-0.0992v-0.11472z"/>
  <path d="m43.427 201.48-0.97668-2.2479q-0.17673-0.40618-0.27595-0.5147-0.07131-0.0806-0.21084-0.10852v-0.11472h1.541v0.11472q-0.14573 0-0.19844 0.0527-0.07441 0.0682-0.07441 0.16123 0 0.11472 0.13642 0.43098l0.47749 1.0883 0.38137-0.93948q0.16433-0.40308 0.16433-0.57051 0-0.0961-0.07131-0.15503-0.06821-0.062-0.24495-0.0682v-0.11472h0.94878v0.11472q-0.13642 0.0186-0.22324 0.10232-0.08682 0.0837-0.26045 0.49299l-0.96738 2.2758z"/>
  <path d="m46.894 200.96q-0.5302 0.46819-0.95188 0.46819-0.24805 0-0.41238-0.16123-0.16433-0.16433-0.16433-0.40927 0-0.33177 0.28525-0.59532 0.28525-0.26665 1.2433-0.70693v-0.29146q0-0.32866-0.03721-0.41237-0.03411-0.0868-0.13332-0.14883-0.09922-0.0651-0.22324-0.0651-0.20154 0-0.33176 0.0899-0.08062 0.0558-0.08062 0.13023 0 0.0651 0.08682 0.16123 0.11782 0.13332 0.11782 0.25735 0 0.15193-0.11472 0.26045-0.11162 0.10542-0.29456 0.10542-0.19534 0-0.32866-0.11783-0.13022-0.11782-0.13022-0.27595 0-0.22324 0.17673-0.42478 0.17673-0.20464 0.49299-0.31316t0.65732-0.10852q0.41238 0 0.65112 0.17673 0.24185 0.17364 0.31316 0.37828 0.04341 0.13022 0.04341 0.59841v1.1255q0 0.19844 0.0155 0.25115 0.0155 0.0496 0.04651 0.0744t0.07131 0.0248q0.08062 0 0.16433-0.11472l0.09302 0.0744q-0.15503 0.22944-0.32246 0.33486-0.16433 0.10232-0.37517 0.10232-0.24805 0-0.38757-0.11472-0.13953-0.11782-0.17053-0.35347zm0-0.22634v-0.97048q-0.37517 0.22014-0.55811 0.47129-0.12092 0.16743-0.12092 0.33796 0 0.14263 0.10232 0.25115 0.07751 0.0837 0.21704 0.0837 0.15503 0 0.35967-0.17363z"/>
  <path d="m49.672 198.49v0.65732q0.28836-0.44958 0.5054-0.59531 0.21704-0.14883 0.41858-0.14883 0.17363 0 0.27595 0.10852 0.10542 0.10542 0.10542 0.30076 0 0.20774-0.10232 0.32246-0.09922 0.11472-0.24184 0.11472-0.16433 0-0.28525-0.10542t-0.14263-0.11782q-0.03101-0.0186-0.07131-0.0186-0.08992 0-0.17053 0.0682-0.12712 0.10542-0.19224 0.30076-0.09922 0.30075-0.09922 0.66352v0.66663l0.0031 0.17363q0 0.17673 0.0217 0.22634 0.03721 0.0837 0.10852 0.12403 0.07441 0.0372 0.24805 0.0465v0.11163h-1.5658v-0.11163q0.18914-0.0155 0.25425-0.10232 0.06821-0.0899 0.06821-0.46818v-1.603q0-0.24804-0.0248-0.31626-0.03101-0.0868-0.08992-0.12712-0.05891-0.0403-0.20774-0.0558v-0.11472z"/>
  <path d="m51.985 197.09q0.20154 0 0.34106 0.14263 0.13953 0.13953 0.13953 0.33796 0 0.19844-0.14263 0.33797-0.13953 0.13952-0.33796 0.13952-0.19844 0-0.33796-0.13952-0.13953-0.13953-0.13953-0.33797 0-0.19843 0.13953-0.33796 0.13953-0.14263 0.33796-0.14263zm0.43408 1.4046v2.2975q0 0.30696 0.07131 0.39378 0.07131 0.0837 0.27905 0.0961v0.11163h-1.5658v-0.11163q0.19224-6e-3 0.28525-0.11162 0.06201-0.0713 0.06201-0.37827v-1.6929q0-0.30696-0.07131-0.39067-0.07131-0.0868-0.27595-0.0992v-0.11472z"/>
  <path d="m54.652 200.96q-0.5302 0.46819-0.95188 0.46819-0.24805 0-0.41238-0.16123-0.16433-0.16433-0.16433-0.40927 0-0.33177 0.28525-0.59532 0.28525-0.26665 1.2433-0.70693v-0.29146q0-0.32866-0.03721-0.41237-0.03411-0.0868-0.13333-0.14883-0.09922-0.0651-0.22324-0.0651-0.20154 0-0.33176 0.0899-0.08062 0.0558-0.08062 0.13023 0 0.0651 0.08682 0.16123 0.11782 0.13332 0.11782 0.25735 0 0.15193-0.11472 0.26045-0.11162 0.10542-0.29456 0.10542-0.19534 0-0.32866-0.11783-0.13022-0.11782-0.13022-0.27595 0-0.22324 0.17673-0.42478 0.17673-0.20464 0.49299-0.31316 0.31626-0.10852 0.65732-0.10852 0.41238 0 0.65112 0.17673 0.24184 0.17364 0.31316 0.37828 0.04341 0.13022 0.04341 0.59841v1.1255q0 0.19844 0.0155 0.25115 0.0155 0.0496 0.04651 0.0744t0.07131 0.0248q0.08062 0 0.16433-0.11472l0.09302 0.0744q-0.15503 0.22944-0.32246 0.33486-0.16433 0.10232-0.37517 0.10232-0.24805 0-0.38757-0.11472-0.13953-0.11782-0.17053-0.35347zm0-0.22634v-0.97048q-0.37517 0.22014-0.55811 0.47129-0.12092 0.16743-0.12092 0.33796 0 0.14263 0.10232 0.25115 0.07751 0.0837 0.21704 0.0837 0.15503 0 0.35967-0.17363z"/>
  <path d="m57.377 197.43v1.0604h0.68833v0.30696h-0.68833v1.789q0 0.25115 0.0217 0.32557 0.02481 0.0713 0.08372 0.11782 0.05891 0.0434 0.10852 0.0434 0.20154 0 0.38137-0.30696l0.09302 0.0682q-0.25115 0.59531-0.81545 0.59531-0.27595 0-0.46819-0.15193-0.18914-0.15503-0.24184-0.34416-0.03101-0.10542-0.03101-0.57051v-1.5658h-0.37827v-0.10852q0.39067-0.27596 0.66353-0.57981 0.27595-0.30386 0.48059-0.67903z"/>
  <path d="m60.797 199.84h-1.5906q0.02791 0.57671 0.30696 0.91157 0.21394 0.25735 0.5147 0.25735 0.18604 0 0.33796-0.10232 0.15193-0.10542 0.32556-0.37517l0.10542 0.0682q-0.23564 0.48059-0.5209 0.68212-0.28525 0.19844-0.66042 0.19844-0.64492 0-0.97668-0.49609-0.26665-0.39998-0.26665-0.99219 0-0.72554 0.39067-1.1534 0.39378-0.43098 0.92087-0.43098 0.44028 0 0.76274 0.36277 0.32556 0.35967 0.35037 1.0697zm-0.76274-0.20774q0-0.49919-0.05581-0.68523-0.05271-0.18603-0.16743-0.28215-0.06511-0.0558-0.17363-0.0558-0.16123 0-0.26355 0.15813-0.18294 0.27595-0.18294 0.75654v0.10852z"/>
  <path d="m66.914 197.09v1.4821h-0.11472q-0.20774-0.60771-0.62322-0.92397-0.41548-0.31626-0.90847-0.31626-0.47129 0-0.78445 0.26665-0.31316 0.26355-0.44338 0.73794-0.13022 0.47439-0.13022 0.97358 0 0.60462 0.14263 1.0604 0.14263 0.45579 0.45889 0.66973 0.31936 0.21394 0.75654 0.21394 0.15193 0 0.31006-0.031 0.16123-0.0341 0.32866-0.0961v-0.87437q0-0.24805-0.03411-0.31936-0.03411-0.0744-0.14263-0.13333-0.10542-0.0589-0.25735-0.0589h-0.10852v-0.11475h2.0433v0.11472q-0.23254 0.0155-0.32556 0.0651-0.08992 0.0465-0.13953 0.15813-0.02791 0.0589-0.02791 0.28835v0.87437q-0.40308 0.17983-0.84026 0.26975-0.43408 0.093-0.90227 0.093-0.59841 0-0.99529-0.16123-0.39377-0.16433-0.69763-0.42788-0.30076-0.26665-0.47129-0.59841-0.21704-0.42788-0.21704-0.95808 0-0.94878 0.66663-1.603 0.66663-0.65423 1.6774-0.65423 0.31316 0 0.56431 0.0496 0.13643 0.0248 0.44028 0.14263 0.30696 0.11472 0.36277 0.11472 0.08682 0 0.16123-0.062 0.07441-0.0651 0.13643-0.24185z"/>
  <path d="m69.286 200.96q-0.5302 0.46819-0.95188 0.46819-0.24805 0-0.41238-0.16123-0.16433-0.16433-0.16433-0.40927 0-0.33177 0.28525-0.59532 0.28525-0.26665 1.2433-0.70693v-0.29146q0-0.32866-0.03721-0.41237-0.03411-0.0868-0.13332-0.14883-0.09922-0.0651-0.22324-0.0651-0.20154 0-0.33176 0.0899-0.08062 0.0558-0.08062 0.13023 0 0.0651 0.08682 0.16123 0.11782 0.13332 0.11782 0.25735 0 0.15193-0.11472 0.26045-0.11162 0.10542-0.29456 0.10542-0.19534 0-0.32866-0.11783-0.13022-0.11782-0.13022-0.27595 0-0.22324 0.17673-0.42478 0.17673-0.20464 0.49299-0.31316t0.65732-0.10852q0.41238 0 0.65112 0.17673 0.24185 0.17364 0.31316 0.37828 0.04341 0.13022 0.04341 0.59841v1.1255q0 0.19844 0.0155 0.25115 0.0155 0.0496 0.04651 0.0744t0.07131 0.0248q0.08062 0 0.16433-0.11472l0.09302 0.0744q-0.15503 0.22944-0.32246 0.33486-0.16433 0.10232-0.37517 0.10232-0.24805 0-0.38757-0.11472-0.13953-0.11782-0.17053-0.35347zm0-0.22634v-0.97048q-0.37517 0.22014-0.5581 0.47129-0.12092 0.16743-0.12092 0.33796 0 0.14263 0.10232 0.25115 0.07752 0.0837 0.21704 0.0837 0.15503 0 0.35967-0.17363z"/>
  <path d="m73.661 198.49v2.2696q0 0.33176 0.06201 0.41547 0.06201 0.0806 0.25115 0.10232v0.11163h-1.1813v-0.38758q-0.20774 0.24805-0.41548 0.36277-0.20774 0.11162-0.46509 0.11162-0.24495 0-0.43718-0.14883-0.18914-0.15193-0.25425-0.35346-0.06511-0.20154-0.06511-0.70384v-1.1503q0-0.32867-0.06201-0.40928-0.05891-0.0806-0.25115-0.10542v-0.11472h1.1813v1.9813q0 0.31006 0.0279 0.39998 0.03101 0.0899 0.09302 0.13642 0.06511 0.0465 0.14883 0.0465 0.11162 0 0.20154-0.0589 0.12402-0.0806 0.29766-0.32556v-1.5503q0-0.32867-0.06201-0.40928-0.05891-0.0806-0.25115-0.10542v-0.11472z"/>
  <path d="m76.225 198.41 0.04651 0.98909h-0.10542q-0.18914-0.44028-0.39377-0.60151-0.20154-0.16123-0.40308-0.16123-0.12712 0-0.21704 0.0868-0.08992 0.0837-0.08992 0.19534 0 0.0837 0.06201 0.16123 0.09922 0.12712 0.555 0.43718 0.45579 0.30696 0.59841 0.524 0.14573 0.21394 0.14573 0.48059 0 0.24185-0.12092 0.47439t-0.34106 0.35657q-0.22014 0.12402-0.48679 0.12402-0.20774 0-0.555-0.13022-0.09302-0.0341-0.12712-0.0341-0.10232 0-0.17053 0.15503h-0.10232l-0.04961-1.0418h0.10542q0.13953 0.40928 0.38137 0.61392 0.24495 0.20464 0.46199 0.20464 0.14883 0 0.24184-0.0899 0.09612-0.093 0.09612-0.22324 0-0.14883-0.09302-0.25735t-0.41548-0.32866q-0.47439-0.32866-0.61392-0.5023-0.20464-0.25425-0.20464-0.5612 0-0.33487 0.22944-0.60462 0.23254-0.27285 0.66973-0.27285 0.23564 0 0.45579 0.11472 0.08372 0.0465 0.13643 0.0465 0.05581 0 0.08992-0.0217 0.03411-0.0248 0.10852-0.13333z"/>
  <path d="m78.697 198.41 0.04651 0.98909h-0.10542q-0.18914-0.44028-0.39377-0.60151-0.20154-0.16123-0.40308-0.16123-0.12712 0-0.21704 0.0868-0.08992 0.0837-0.08992 0.19534 0 0.0837 0.06201 0.16123 0.09922 0.12712 0.555 0.43718 0.45579 0.30696 0.59841 0.524 0.14573 0.21394 0.14573 0.48059 0 0.24185-0.12092 0.47439t-0.34106 0.35657q-0.22014 0.12402-0.48679 0.12402-0.20774 0-0.555-0.13022-0.09302-0.0341-0.12712-0.0341-0.10232 0-0.17053 0.15503h-0.10232l-0.04961-1.0418h0.10542q0.13953 0.40928 0.38137 0.61392 0.24495 0.20464 0.46199 0.20464 0.14883 0 0.24185-0.0899 0.09612-0.093 0.09612-0.22324 0-0.14883-0.09302-0.25735t-0.41548-0.32866q-0.47439-0.32866-0.61392-0.5023-0.20464-0.25425-0.20464-0.5612 0-0.33487 0.22944-0.60462 0.23254-0.27285 0.66973-0.27285 0.23564 0 0.45579 0.11472 0.08372 0.0465 0.13643 0.0465 0.05581 0 0.08992-0.0217 0.03411-0.0248 0.10852-0.13333z"/>
  <path d="m80.033 197.09q0.20154 0 0.34106 0.14263 0.13953 0.13953 0.13953 0.33796 0 0.19844-0.14263 0.33797-0.13953 0.13952-0.33796 0.13952-0.19844 0-0.33796-0.13952-0.13953-0.13953-0.13953-0.33797 0-0.19843 0.13953-0.33796 0.13953-0.14263 0.33796-0.14263zm0.43408 1.4046v2.2975q0 0.30696 0.07131 0.39378 0.07131 0.0837 0.27905 0.0961v0.11163h-1.5658v-0.11163q0.19224-6e-3 0.28525-0.11162 0.06201-0.0713 0.06201-0.37827v-1.6929q0-0.30696-0.07131-0.39067-0.07131-0.0868-0.27595-0.0992v-0.11472z"/>
  <path d="m82.7 200.96q-0.5302 0.46819-0.95188 0.46819-0.24805 0-0.41238-0.16123-0.16433-0.16433-0.16433-0.40927 0-0.33177 0.28525-0.59532 0.28525-0.26665 1.2433-0.70693v-0.29146q0-0.32866-0.03721-0.41237-0.03411-0.0868-0.13333-0.14883-0.09922-0.0651-0.22324-0.0651-0.20154 0-0.33176 0.0899-0.08062 0.0558-0.08062 0.13023 0 0.0651 0.08682 0.16123 0.11782 0.13332 0.11782 0.25735 0 0.15193-0.11472 0.26045-0.11162 0.10542-0.29456 0.10542-0.19534 0-0.32866-0.11783-0.13022-0.11782-0.13022-0.27595 0-0.22324 0.17673-0.42478 0.17673-0.20464 0.49299-0.31316 0.31626-0.10852 0.65732-0.10852 0.41238 0 0.65112 0.17673 0.24184 0.17364 0.31316 0.37828 0.04341 0.13022 0.04341 0.59841v1.1255q0 0.19844 0.0155 0.25115 0.0155 0.0496 0.04651 0.0744t0.07131 0.0248q0.08062 0 0.16433-0.11472l0.09302 0.0744q-0.15503 0.22944-0.32246 0.33486-0.16433 0.10232-0.37517 0.10232-0.24805 0-0.38757-0.11472-0.13953-0.11782-0.17053-0.35347zm0-0.22634v-0.97048q-0.37517 0.22014-0.55811 0.47129-0.12092 0.16743-0.12092 0.33796 0 0.14263 0.10232 0.25115 0.07751 0.0837 0.21704 0.0837 0.15503 0 0.35967-0.17363z"/>
  <path d="m85.459 198.49v0.37517q0.22324-0.24185 0.42788-0.35037 0.20464-0.11162 0.44028-0.11162 0.28215 0 0.46819 0.15813 0.18604 0.15503 0.24805 0.38757 0.04961 0.17674 0.04961 0.67903v1.1286q0 0.33486 0.05891 0.41857 0.06201 0.0806 0.25425 0.10232v0.11163h-1.4666v-0.11163q0.16433-0.0217 0.23564-0.13642 0.04961-0.0775 0.04961-0.38447v-1.2898q0-0.35657-0.0279-0.44958-0.02791-0.093-0.09612-0.14263-0.06511-0.0527-0.14573-0.0527-0.26665 0-0.49609 0.38137v1.5534q0 0.32556 0.05891 0.41237 0.06201 0.0868 0.22634 0.10852v0.11163h-1.4666v-0.11163q0.18294-0.0186 0.26045-0.11782 0.05271-0.0682 0.05271-0.40307v-1.6371q0-0.32867-0.06201-0.40928-0.05891-0.0806-0.25115-0.10542v-0.11472z"/>
  <path d="m92.206 199.96 1.141-2.7719h1.7115v0.11472h-0.13643q-0.18604 0-0.29766 0.0651-0.07752 0.0434-0.12402 0.14573-0.03411 0.0744-0.03411 0.38758v2.7719q0 0.32246 0.03411 0.40308 0.03411 0.0806 0.13953 0.14262 0.10542 0.0589 0.28215 0.0589h0.13643v0.11473h-2.1952v-0.11473h0.13643q0.18604 0 0.29766-0.0651 0.07752-0.0434 0.12402-0.14883 0.03411-0.0744 0.03411-0.39067v-3.1161l-1.6123 3.8354h-0.07442l-1.6371-3.8075v2.9611q0 0.31005 0.0155 0.38137 0.04031 0.15503 0.17363 0.25425 0.13643 0.0961 0.42478 0.0961v0.11473h-1.4387v-0.11473h0.04341q0.13953 3e-3 0.26045-0.0434 0.12092-0.0496 0.18293-0.13023 0.06201-0.0806 0.09612-0.22634 0.0062-0.0341 0.0062-0.31626v-2.6603q0-0.31936-0.03411-0.39688-0.03411-0.0806-0.13953-0.13953-0.10542-0.062-0.28215-0.062h-0.13332v-0.11472h1.7177z"/>
  <path d="m96.085 197.09q0.20154 0 0.34106 0.14263 0.13953 0.13953 0.13953 0.33796 0 0.19844-0.14263 0.33797-0.13953 0.13952-0.33796 0.13952-0.19844 0-0.33796-0.13952-0.13953-0.13953-0.13953-0.33797 0-0.19843 0.13953-0.33796 0.13953-0.14263 0.33796-0.14263zm0.43408 1.4046v2.2975q0 0.30696 0.07131 0.39378 0.07131 0.0837 0.27905 0.0961v0.11163h-1.5658v-0.11163q0.19224-6e-3 0.28525-0.11162 0.06201-0.0713 0.06201-0.37827v-1.6929q0-0.30696-0.07131-0.39067-0.07131-0.0868-0.27595-0.0992v-0.11472z"/>
  <path d="m98.866 199.61 0.50229 0.95498q0.26045 0.49919 0.41238 0.63252 0.08372 0.0713 0.22944 0.0775v0.11163h-1.6154v-0.11163q0.18914-0.0155 0.23254-0.0496 0.04651-0.0341 0.04651-0.093 0-0.0868-0.09922-0.27285l-0.25115-0.47129-0.21394 0.31316q-0.14573 0.21394-0.16433 0.25424-0.02481 0.0589-0.02481 0.10542 0 0.0713 0.02791 0.12093 0.03101 0.0465 0.08061 0.0713 0.05271 0.0217 0.18914 0.0217v0.11163h-1.1348v-0.11163q0.21084 0 0.38447-0.11472 0.17673-0.11782 0.5116-0.61081l0.23874-0.35347-0.49919-0.92397q-0.24495-0.45269-0.36587-0.55501t-0.26975-0.11472v-0.11472h1.6061v0.11472l-0.08372 3e-3 -0.16123 0.0558q-0.02481 0.0217-0.02481 0.0713 0 0.0465 0.0155 0.0961 0.0093 0.0217 0.08682 0.16743l0.22634 0.42168 0.11782-0.16743q0.24805-0.34106 0.24805-0.47749 0-0.0651-0.05581-0.10852-0.05271-0.0465-0.19224-0.062v-0.11472h1.0263v0.11472q-0.18914 6e-3 -0.35347 0.11782-0.16433 0.10852-0.36897 0.42478z"/>
  <path d="m101.48 197.43v1.0604h0.68834v0.30696h-0.68834v1.789q0 0.25115 0.0217 0.32557 0.0248 0.0713 0.0837 0.11782 0.0589 0.0434 0.10853 0.0434 0.20153 0 0.38137-0.30696l0.093 0.0682q-0.25115 0.59531-0.81546 0.59531-0.27595 0-0.46819-0.15193-0.18913-0.15503-0.24184-0.34416-0.031-0.10542-0.031-0.57051v-1.5658h-0.37827v-0.10852q0.39067-0.27596 0.66352-0.57981 0.27596-0.30386 0.4806-0.67903z"/>
  <path d="m105.24 198.49v2.2696q0 0.33176 0.062 0.41547 0.062 0.0806 0.25115 0.10232v0.11163h-1.1813v-0.38758q-0.20774 0.24805-0.41547 0.36277-0.20774 0.11162-0.46509 0.11162-0.24495 0-0.43719-0.14883-0.18913-0.15193-0.25424-0.35346-0.0651-0.20154-0.0651-0.70384v-1.1503q0-0.32867-0.062-0.40928-0.0589-0.0806-0.25114-0.10542v-0.11472h1.1813v1.9813q0 0.31006 0.0279 0.39998 0.031 0.0899 0.093 0.13642 0.0651 0.0465 0.14883 0.0465 0.11162 0 0.20154-0.0589 0.12402-0.0806 0.29765-0.32556v-1.5503q0-0.32867-0.062-0.40928-0.0589-0.0806-0.25115-0.10542v-0.11472z"/>
  <path d="m107.18 198.49v0.65732q0.28835-0.44958 0.50539-0.59531 0.21705-0.14883 0.41858-0.14883 0.17364 0 0.27596 0.10852 0.10542 0.10542 0.10542 0.30076 0 0.20774-0.10232 0.32246-0.0992 0.11472-0.24185 0.11472-0.16433 0-0.28525-0.10542-0.12093-0.10542-0.14263-0.11782-0.031-0.0186-0.0713-0.0186-0.0899 0-0.17054 0.0682-0.12712 0.10542-0.19223 0.30076-0.0992 0.30075-0.0992 0.66352v0.66663l3e-3 0.17363q0 0.17673 0.0217 0.22634 0.0372 0.0837 0.10852 0.12403 0.0744 0.0372 0.24805 0.0465v0.11163h-1.5658v-0.11163q0.18913-0.0155 0.25424-0.10232 0.0682-0.0899 0.0682-0.46818v-1.603q0-0.24804-0.0248-0.31626-0.031-0.0868-0.0899-0.12712-0.0589-0.0403-0.20773-0.0558v-0.11472z"/>
  <path d="m111.13 199.84h-1.5906q0.0279 0.57671 0.30696 0.91157 0.21394 0.25735 0.51469 0.25735 0.18604 0 0.33797-0.10232 0.15193-0.10542 0.32556-0.37517l0.10542 0.0682q-0.23565 0.48059-0.5209 0.68212-0.28525 0.19844-0.66043 0.19844-0.64492 0-0.97668-0.49609-0.26665-0.39998-0.26665-0.99219 0-0.72554 0.39067-1.1534 0.39378-0.43098 0.92088-0.43098 0.44028 0 0.76274 0.36277 0.32556 0.35967 0.35037 1.0697zm-0.76275-0.20774q0-0.49919-0.0558-0.68523-0.0527-0.18603-0.16743-0.28215-0.0651-0.0558-0.17363-0.0558-0.16123 0-0.26355 0.15813-0.18294 0.27595-0.18294 0.75654v0.10852z"/>
  <path d="m114.35 198.8v2.0123q0 0.29145 0.062 0.36586 0.0992 0.11473 0.36586 0.10542v0.11163h-1.7084v-0.11163q0.19534-3e-3 0.27595-0.0434 0.0837-0.0434 0.11473-0.11783 0.031-0.0744 0.031-0.31005v-2.0123h-0.42168v-0.30385h0.42168v-0.21394l-3e-3 -0.14573q0-0.44648 0.32556-0.74414 0.32866-0.29766 0.88677-0.29766 0.38137 0 0.56431 0.14263 0.18603 0.14263 0.18603 0.31626 0 0.13953-0.11472 0.24185-0.11472 0.10231-0.30386 0.10231-0.16123 0-0.25735-0.0837-0.093-0.0837-0.093-0.18604 0-0.0279 0.0186-0.11472 0.0124-0.0527 0.0124-0.0992 0-0.0651-0.0372-0.0961-0.0496-0.0465-0.12093-0.0465-0.0899 0-0.15193 0.0744-0.0589 0.0744-0.0589 0.23875l6e-3 0.5426v0.36897h0.42788v0.30385z"/>
  <path d="m116.56 198.41q0.37827 0 0.70384 0.19534 0.32556 0.19533 0.49299 0.555 0.17053 0.35967 0.17053 0.78755 0 0.61702-0.31316 1.0325-0.37827 0.50229-1.0449 0.50229-0.65422 0-1.0077-0.45888-0.35346-0.45889-0.35346-1.0635 0-0.62321 0.35967-1.0852 0.36276-0.46509 0.99218-0.46509zm0.0124 0.22014q-0.15813 0-0.27286 0.12093-0.11162 0.11782-0.14882 0.47128-0.0341 0.35037-0.0341 0.97669 0 0.33176 0.0434 0.62012 0.0341 0.22014 0.14573 0.33486 0.11162 0.11472 0.25424 0.11472 0.13953 0 0.23255-0.0775 0.12092-0.10542 0.16123-0.29456 0.062-0.29455 0.062-1.1906 0-0.5271-0.0589-0.72244-0.0589-0.19844-0.17363-0.28835-0.0806-0.0651-0.21084-0.0651z"/>
  <path d="m119.57 198.49v0.65732q0.28835-0.44958 0.50539-0.59531 0.21704-0.14883 0.41858-0.14883 0.17363 0 0.27595 0.10852 0.10542 0.10542 0.10542 0.30076 0 0.20774-0.10232 0.32246-0.0992 0.11472-0.24184 0.11472-0.16433 0-0.28526-0.10542-0.12092-0.10542-0.14262-0.11782-0.031-0.0186-0.0713-0.0186-0.0899 0-0.17053 0.0682-0.12712 0.10542-0.19224 0.30076-0.0992 0.30075-0.0992 0.66352v0.66663l3e-3 0.17363q0 0.17673 0.0217 0.22634 0.0372 0.0837 0.10852 0.12403 0.0744 0.0372 0.24805 0.0465v0.11163h-1.5658v-0.11163q0.18914-0.0155 0.25425-0.10232 0.0682-0.0899 0.0682-0.46818v-1.603q0-0.24804-0.0248-0.31626-0.031-0.0868-0.0899-0.12712-0.0589-0.0403-0.20774-0.0558v-0.11472z"/>
  <path d="m124.18 197.43v1.7115h0.0837q0.39997 0 0.57981-0.25115 0.17983-0.25114 0.22944-0.74104h0.11782v2.2014h-0.11782q-0.0372-0.35967-0.15813-0.58911-0.11782-0.22945-0.27595-0.30696-0.15813-0.0806-0.45889-0.0806v1.1844q0 0.34726 0.0279 0.42478 0.031 0.0775 0.11162 0.12712 0.0806 0.0496 0.26045 0.0496h0.25114q0.58912 0 0.94258-0.27285 0.35657-0.27285 0.5116-0.83096h0.11472l-0.18914 1.3364h-3.6339v-0.11473h0.13952q0.18294 0 0.29456-0.0651 0.0806-0.0434 0.12402-0.14883 0.0341-0.0744 0.0341-0.39067v-2.7657q0-0.28526-0.0155-0.35037-0.031-0.10852-0.11472-0.16743-0.11783-0.0868-0.32247-0.0868h-0.13952v-0.11472h3.5192v1.2433h-0.11782q-0.0899-0.45579-0.25425-0.65423-0.16123-0.19844-0.45888-0.29145-0.17364-0.0558-0.65113-0.0558z"/>
  <path d="m128.17 198.8v2.0123q0 0.29145 0.062 0.36586 0.0992 0.11473 0.36587 0.10542v0.11163h-1.7084v-0.11163q0.19533-3e-3 0.27595-0.0434 0.0837-0.0434 0.11472-0.11783 0.031-0.0744 0.031-0.31005v-2.0123h-0.42168v-0.30385h0.42168v-0.21394l-3e-3 -0.14573q0-0.44648 0.32556-0.74414 0.32866-0.29766 0.88677-0.29766 0.38137 0 0.5643 0.14263 0.18604 0.14263 0.18604 0.31626 0 0.13953-0.11472 0.24185-0.11473 0.10231-0.30386 0.10231-0.16123 0-0.25735-0.0837-0.093-0.0837-0.093-0.18604 0-0.0279 0.0186-0.11472 0.0124-0.0527 0.0124-0.0992 0-0.0651-0.0372-0.0961-0.0496-0.0465-0.12092-0.0465-0.0899 0-0.15193 0.0744-0.0589 0.0744-0.0589 0.23875l6e-3 0.5426v0.36897h0.42788v0.30385z"/>
  <path d="m130.28 198.8v2.0123q0 0.29145 0.062 0.36586 0.0992 0.11473 0.36587 0.10542v0.11163h-1.7084v-0.11163q0.19534-3e-3 0.27595-0.0434 0.0837-0.0434 0.11472-0.11783 0.031-0.0744 0.031-0.31005v-2.0123h-0.42168v-0.30385h0.42168v-0.21394l-3e-3 -0.14573q0-0.44648 0.32556-0.74414 0.32866-0.29766 0.88677-0.29766 0.38137 0 0.5643 0.14263 0.18604 0.14263 0.18604 0.31626 0 0.13953-0.11472 0.24185-0.11472 0.10231-0.30386 0.10231-0.16123 0-0.25735-0.0837-0.093-0.0837-0.093-0.18604 0-0.0279 0.0186-0.11472 0.0124-0.0527 0.0124-0.0992 0-0.0651-0.0372-0.0961-0.0496-0.0465-0.12092-0.0465-0.0899 0-0.15193 0.0744-0.0589 0.0744-0.0589 0.23875l6e-3 0.5426v0.36897h0.42788v0.30385z"/>
  <path d="m131.83 197.09q0.20153 0 0.34106 0.14263 0.13953 0.13953 0.13953 0.33796 0 0.19844-0.14263 0.33797-0.13953 0.13952-0.33796 0.13952-0.19844 0-0.33797-0.13952-0.13952-0.13953-0.13952-0.33797 0-0.19843 0.13952-0.33796 0.13953-0.14263 0.33797-0.14263zm0.43408 1.4046v2.2975q0 0.30696 0.0713 0.39378 0.0713 0.0837 0.27905 0.0961v0.11163h-1.5658v-0.11163q0.19223-6e-3 0.28525-0.11162 0.062-0.0713 0.062-0.37827v-1.6929q0-0.30696-0.0713-0.39067-0.0713-0.0868-0.27595-0.0992v-0.11472z"/>
  <path d="m135.26 200.64 0.0961 0.0744q-0.20464 0.38447-0.5116 0.57361-0.30386 0.18603-0.64802 0.18603-0.57981 0-0.92708-0.43718-0.34726-0.43718-0.34726-1.0511 0-0.59221 0.31626-1.0418 0.38137-0.5426 1.0511-0.5426 0.44959 0 0.71314 0.22634 0.26665 0.22635 0.26665 0.5054 0 0.17673-0.10852 0.28215-0.10542 0.10542-0.27905 0.10542-0.18294 0-0.30386-0.12092-0.11782-0.12092-0.14573-0.43098-0.0186-0.19534-0.0899-0.27285-0.0713-0.0775-0.16743-0.0775-0.14883 0-0.25425 0.15813-0.16123 0.23875-0.16123 0.73174 0 0.40928 0.13023 0.78445 0.13022 0.37207 0.35657 0.555 0.17053 0.13333 0.40307 0.13333 0.15193 0 0.28836-0.0713 0.13642-0.0713 0.32246-0.26976z"/>
  <path d="m136.41 197.09q0.20154 0 0.34106 0.14263 0.13953 0.13953 0.13953 0.33796 0 0.19844-0.14263 0.33797-0.13952 0.13952-0.33796 0.13952t-0.33797-0.13952q-0.13952-0.13953-0.13952-0.33797 0-0.19843 0.13952-0.33796 0.13953-0.14263 0.33797-0.14263zm0.43408 1.4046v2.2975q0 0.30696 0.0713 0.39378 0.0713 0.0837 0.27906 0.0961v0.11163h-1.5658v-0.11163q0.19224-6e-3 0.28525-0.11162 0.062-0.0713 0.062-0.37827v-1.6929q0-0.30696-0.0713-0.39067-0.0713-0.0868-0.27595-0.0992v-0.11472z"/>
  <path d="m139.93 199.84h-1.5906q0.0279 0.57671 0.30695 0.91157 0.21394 0.25735 0.5147 0.25735 0.18604 0 0.33796-0.10232 0.15193-0.10542 0.32557-0.37517l0.10542 0.0682q-0.23565 0.48059-0.5209 0.68212-0.28526 0.19844-0.66043 0.19844-0.64492 0-0.97668-0.49609-0.26665-0.39998-0.26665-0.99219 0-0.72554 0.39067-1.1534 0.39378-0.43098 0.92088-0.43098 0.44028 0 0.76274 0.36277 0.32556 0.35967 0.35037 1.0697zm-0.76275-0.20774q0-0.49919-0.0558-0.68523-0.0527-0.18603-0.16743-0.28215-0.0651-0.0558-0.17363-0.0558-0.16123 0-0.26355 0.15813-0.18294 0.27595-0.18294 0.75654v0.10852z"/>
  <path d="m141.48 198.49v0.37517q0.22324-0.24185 0.42788-0.35037 0.20464-0.11162 0.44028-0.11162 0.28215 0 0.46819 0.15813 0.18603 0.15503 0.24805 0.38757 0.0496 0.17674 0.0496 0.67903v1.1286q0 0.33486 0.0589 0.41857 0.062 0.0806 0.25424 0.10232v0.11163h-1.4666v-0.11163q0.16433-0.0217 0.23564-0.13642 0.0496-0.0775 0.0496-0.38447v-1.2898q0-0.35657-0.0279-0.44958-0.0279-0.093-0.0961-0.14263-0.0651-0.0527-0.14573-0.0527-0.26665 0-0.49609 0.38137v1.5534q0 0.32556 0.0589 0.41237 0.062 0.0868 0.22634 0.10852v0.11163h-1.4666v-0.11163q0.18294-0.0186 0.26045-0.11782 0.0527-0.0682 0.0527-0.40307v-1.6371q0-0.32867-0.062-0.40928-0.0589-0.0806-0.25115-0.10542v-0.11472z"/>
  <path d="m144.97 197.43v1.0604h0.68833v0.30696h-0.68833v1.789q0 0.25115 0.0217 0.32557 0.0248 0.0713 0.0837 0.11782 0.0589 0.0434 0.10852 0.0434 0.20154 0 0.38137-0.30696l0.093 0.0682q-0.25115 0.59531-0.81545 0.59531-0.27596 0-0.46819-0.15193-0.18914-0.15503-0.24185-0.34416-0.031-0.10542-0.031-0.57051v-1.5658h-0.37827v-0.10852q0.39067-0.27596 0.66352-0.57981 0.27595-0.30386 0.48059-0.67903z"/>
  <path d="m148.89 197.19 2.0743 2.6076v-1.8076q0-0.37827-0.10852-0.51159-0.14883-0.17984-0.4992-0.17364v-0.11472h1.3891v0.11472q-0.26665 0.0341-0.35966 0.0899-0.0899 0.0527-0.14263 0.17673-0.0496 0.12093-0.0496 0.41858v3.5006h-0.10542l-2.8432-3.5006v2.6727q0 0.36277 0.16433 0.48989 0.16744 0.12712 0.38138 0.12712h0.0992v0.11473h-1.4914v-0.11473q0.34727-3e-3 0.48369-0.14262 0.13643-0.13953 0.13643-0.47439v-2.9673l-0.0899-0.11162q-0.13332-0.16744-0.23564-0.22015-0.10232-0.0527-0.29456-0.0589v-0.11472z"/>
  <path d="m154.57 199.84h-1.5906q0.0279 0.57671 0.30696 0.91157 0.21394 0.25735 0.51469 0.25735 0.18604 0 0.33797-0.10232 0.15193-0.10542 0.32556-0.37517l0.10542 0.0682q-0.23565 0.48059-0.5209 0.68212-0.28525 0.19844-0.66042 0.19844-0.64493 0-0.97669-0.49609-0.26665-0.39998-0.26665-0.99219 0-0.72554 0.39068-1.1534 0.39377-0.43098 0.92087-0.43098 0.44028 0 0.76274 0.36277 0.32556 0.35967 0.35037 1.0697zm-0.76274-0.20774q0-0.49919-0.0558-0.68523-0.0527-0.18603-0.16743-0.28215-0.0651-0.0558-0.17363-0.0558-0.16123 0-0.26355 0.15813-0.18293 0.27595-0.18293 0.75654v0.10852z"/>
  <path d="m157.73 198.49v2.2696q0 0.33176 0.062 0.41547 0.062 0.0806 0.25115 0.10232v0.11163h-1.1813v-0.38758q-0.20774 0.24805-0.41548 0.36277-0.20774 0.11162-0.46509 0.11162-0.24495 0-0.43718-0.14883-0.18914-0.15193-0.25425-0.35346-0.0651-0.20154-0.0651-0.70384v-1.1503q0-0.32867-0.062-0.40928-0.0589-0.0806-0.25115-0.10542v-0.11472h1.1813v1.9813q0 0.31006 0.0279 0.39998 0.031 0.0899 0.093 0.13642 0.0651 0.0465 0.14883 0.0465 0.11162 0 0.20154-0.0589 0.12402-0.0806 0.29766-0.32556v-1.5503q0-0.32867-0.062-0.40928-0.0589-0.0806-0.25114-0.10542v-0.11472z"/>
  <path d="m159.67 198.49v0.65732q0.28836-0.44958 0.5054-0.59531 0.21704-0.14883 0.41858-0.14883 0.17363 0 0.27595 0.10852 0.10542 0.10542 0.10542 0.30076 0 0.20774-0.10232 0.32246-0.0992 0.11472-0.24184 0.11472-0.16434 0-0.28526-0.10542t-0.14263-0.11782q-0.031-0.0186-0.0713-0.0186-0.0899 0-0.17053 0.0682-0.12713 0.10542-0.19224 0.30076-0.0992 0.30075-0.0992 0.66352v0.66663l3e-3 0.17363q0 0.17673 0.0217 0.22634 0.0372 0.0837 0.10852 0.12403 0.0744 0.0372 0.24805 0.0465v0.11163h-1.5658v-0.11163q0.18914-0.0155 0.25425-0.10232 0.0682-0.0899 0.0682-0.46818v-1.603q0-0.24804-0.0248-0.31626-0.031-0.0868-0.0899-0.12712-0.0589-0.0403-0.20774-0.0558v-0.11472z"/>
  <path d="m162.88 200.96q-0.5302 0.46819-0.95188 0.46819-0.24804 0-0.41237-0.16123-0.16433-0.16433-0.16433-0.40927 0-0.33177 0.28525-0.59532 0.28525-0.26665 1.2433-0.70693v-0.29146q0-0.32866-0.0372-0.41237-0.0341-0.0868-0.13333-0.14883-0.0992-0.0651-0.22324-0.0651-0.20154 0-0.33176 0.0899-0.0806 0.0558-0.0806 0.13023 0 0.0651 0.0868 0.16123 0.11782 0.13332 0.11782 0.25735 0 0.15193-0.11472 0.26045-0.11162 0.10542-0.29456 0.10542-0.19533 0-0.32866-0.11783-0.13022-0.11782-0.13022-0.27595 0-0.22324 0.17673-0.42478 0.17673-0.20464 0.49299-0.31316t0.65733-0.10852q0.41238 0 0.65112 0.17673 0.24185 0.17364 0.31316 0.37828 0.0434 0.13022 0.0434 0.59841v1.1255q0 0.19844 0.0155 0.25115 0.0155 0.0496 0.0465 0.0744t0.0713 0.0248q0.0806 0 0.16433-0.11472l0.093 0.0744q-0.15503 0.22944-0.32246 0.33486-0.16433 0.10232-0.37517 0.10232-0.24805 0-0.38757-0.11472-0.13953-0.11782-0.17054-0.35347zm0-0.22634v-0.97048q-0.37517 0.22014-0.5581 0.47129-0.12092 0.16743-0.12092 0.33796 0 0.14263 0.10232 0.25115 0.0775 0.0837 0.21704 0.0837 0.15503 0 0.35966-0.17363z"/>
  <path d="m165.59 197.19v3.6029q0 0.30696 0.0713 0.39378 0.0713 0.0837 0.27906 0.0961v0.11163h-1.5658v-0.11163q0.19224-6e-3 0.28525-0.11162 0.062-0.0713 0.062-0.37827v-3.0014q0-0.30385-0.0713-0.38757-0.0713-0.0868-0.27595-0.0992v-0.11472z"/>
  <path d="m169.92 201.28v0.11473h-2.1983v-0.11473h0.13953q0.18293 0 0.29455-0.0651 0.0806-0.0434 0.12402-0.14883 0.0341-0.0744 0.0341-0.39067v-2.7657q0-0.32246-0.0341-0.40308-0.0341-0.0806-0.13952-0.13953-0.10232-0.062-0.27905-0.062h-0.13953v-0.11472h2.1983v0.11472h-0.13952q-0.18294 0-0.29456 0.0651-0.0806 0.0434-0.12712 0.14883-0.0341 0.0744-0.0341 0.39068v2.7657q0 0.32246 0.0341 0.40308 0.0372 0.0806 0.13952 0.14262 0.10542 0.0589 0.28216 0.0589z"/>
  <path d="m171.48 198.49v0.38137q0.23875-0.26045 0.44029-0.36277 0.20464-0.10542 0.44648-0.10542 0.27905 0 0.46819 0.13023 0.18914 0.13022 0.29145 0.39687 0.24805-0.27905 0.47439-0.40308 0.22945-0.12402 0.47749-0.12402 0.30076 0 0.47749 0.13953 0.17984 0.13642 0.24805 0.35036 0.0713 0.21084 0.0713 0.67593v1.1875q0 0.33486 0.0589 0.41547 0.062 0.0806 0.25424 0.10542v0.11163h-1.4976v-0.11163q0.17673-0.0155 0.26045-0.13642 0.0558-0.0837 0.0558-0.38447v-1.2464q0-0.38757-0.031-0.49299t-0.0992-0.15503q-0.0651-0.0527-0.15503-0.0527-0.13333 0-0.26975 0.0992-0.13643 0.0961-0.27596 0.29145v1.5565q0 0.31316 0.0527 0.39377 0.0713 0.11472 0.27286 0.12712v0.11163h-1.5007v-0.11163q0.12092-6e-3 0.18914-0.0589 0.0713-0.0558 0.093-0.13022 0.0248-0.0775 0.0248-0.33176v-1.2464q0-0.39377-0.031-0.49299-0.031-0.0992-0.10542-0.15503-0.0713-0.0558-0.15503-0.0558-0.12402 0-0.22634 0.0651-0.14573 0.0961-0.31006 0.32866v1.5565q0 0.30695 0.0589 0.40617 0.062 0.0961 0.25425 0.11472v0.11163h-1.4945v-0.11163q0.18293-0.0186 0.26045-0.11782 0.0527-0.0682 0.0527-0.40307v-1.6371q0-0.32867-0.062-0.40928-0.0589-0.0806-0.25115-0.10542v-0.11472z"/>
  <path d="m177.17 200.96q-0.5302 0.46819-0.95188 0.46819-0.24805 0-0.41238-0.16123-0.16433-0.16433-0.16433-0.40927 0-0.33177 0.28526-0.59532 0.28525-0.26665 1.2433-0.70693v-0.29146q0-0.32866-0.0372-0.41237-0.0341-0.0868-0.13332-0.14883-0.0992-0.0651-0.22324-0.0651-0.20154 0-0.33177 0.0899-0.0806 0.0558-0.0806 0.13023 0 0.0651 0.0868 0.16123 0.11783 0.13332 0.11783 0.25735 0 0.15193-0.11472 0.26045-0.11163 0.10542-0.29456 0.10542-0.19534 0-0.32866-0.11783-0.13023-0.11782-0.13023-0.27595 0-0.22324 0.17674-0.42478 0.17673-0.20464 0.49299-0.31316t0.65732-0.10852q0.41238 0 0.65113 0.17673 0.24184 0.17364 0.31316 0.37828 0.0434 0.13022 0.0434 0.59841v1.1255q0 0.19844 0.0155 0.25115 0.0155 0.0496 0.0465 0.0744t0.0713 0.0248q0.0806 0 0.16433-0.11472l0.093 0.0744q-0.15503 0.22944-0.32246 0.33486-0.16433 0.10232-0.37517 0.10232-0.24805 0-0.38758-0.11472-0.13952-0.11782-0.17053-0.35347zm0-0.22634v-0.97048q-0.37517 0.22014-0.55811 0.47129-0.12092 0.16743-0.12092 0.33796 0 0.14263 0.10232 0.25115 0.0775 0.0837 0.21704 0.0837 0.15503 0 0.35967-0.17363z"/>
  <path d="m180.6 198.53h0.97668v0.34107h-0.555q0.15193 0.15193 0.21084 0.27595 0.0744 0.16743 0.0744 0.35037 0 0.31006-0.17363 0.5395-0.17053 0.22634-0.46819 0.35657-0.29456 0.12712-0.524 0.12712-0.0186 0-0.37207-0.0155-0.13953 0-0.23564 0.093-0.093 0.0899-0.093 0.21705 0 0.11162 0.0837 0.18293 0.0868 0.0713 0.27906 0.0713l0.5364-6e-3q0.65112 0 0.89607 0.14263 0.35036 0.19844 0.35036 0.61082 0 0.26354-0.16123 0.47749-0.16123 0.21704-0.42478 0.31936-0.39997 0.15192-0.92087 0.15192-0.39067 0-0.71314-0.0775-0.32246-0.0744-0.46198-0.21084-0.13953-0.13333-0.13953-0.28215 0-0.14263 0.10542-0.25735 0.10852-0.11162 0.39998-0.18914-0.40308-0.19844-0.40308-0.5519 0-0.21394 0.16433-0.41548t0.5209-0.35037q-0.41548-0.15193-0.60151-0.39997-0.18604-0.24805-0.18604-0.57361 0-0.42478 0.34727-0.73484 0.34726-0.31316 0.89296-0.31316 0.28836 0 0.59532 0.12092zm-0.5364 0.0713q-0.17984 0-0.30386 0.18293-0.12402 0.17984-0.12402 0.75034 0 0.46199 0.12092 0.63562 0.12402 0.17054 0.29145 0.17054 0.18604 0 0.31006-0.17054 0.12403-0.17053 0.12403-0.66352 0-0.55501-0.13953-0.75654-0.0992-0.14883-0.27905-0.14883zm-0.18294 3.2215q-0.31626 0-0.41858 0.0527-0.17673 0.0961-0.17673 0.26045 0 0.15813 0.18293 0.28525 0.18294 0.13022 0.68833 0.13022 0.43099 0 0.67593-0.11472 0.24805-0.11472 0.24805-0.32246 0-0.0775-0.0465-0.13022-0.0837-0.093-0.25425-0.12713-0.16743-0.0341-0.89917-0.0341z"/>
  <path d="m184.37 199.84h-1.5906q0.0279 0.57671 0.30696 0.91157 0.21394 0.25735 0.5147 0.25735 0.18603 0 0.33796-0.10232 0.15193-0.10542 0.32556-0.37517l0.10542 0.0682q-0.23564 0.48059-0.5209 0.68212-0.28525 0.19844-0.66042 0.19844-0.64492 0-0.97668-0.49609-0.26666-0.39998-0.26666-0.99219 0-0.72554 0.39068-1.1534 0.39377-0.43098 0.92087-0.43098 0.44029 0 0.76275 0.36277 0.32556 0.35967 0.35036 1.0697zm-0.76274-0.20774q0-0.49919-0.0558-0.68523-0.0527-0.18603-0.16743-0.28215-0.0651-0.0558-0.17364-0.0558-0.16123 0-0.26355 0.15813-0.18293 0.27595-0.18293 0.75654v0.10852z"/>
  <path d="m190.35 197.09v1.4573h-0.12092q-0.13643-0.57051-0.5085-0.87437-0.37207-0.30385-0.84336-0.30385-0.39377 0-0.72244 0.22634-0.32866 0.22634-0.48059 0.59221-0.19533 0.46819-0.19533 1.0418 0 0.5643 0.14262 1.0294 0.14263 0.46199 0.44649 0.70073 0.30386 0.23565 0.78755 0.23565 0.39687 0 0.72553-0.17363 0.33177-0.17364 0.69764-0.59842v0.36277q-0.35347 0.36897-0.73794 0.5364-0.38138 0.16433-0.89297 0.16433-0.67283 0-1.1968-0.26975-0.5209-0.26975-0.80615-0.77514-0.28215-0.5054-0.28215-1.0759 0-0.60151 0.31315-1.141 0.31626-0.5395 0.84957-0.83716 0.5364-0.29766 1.1379-0.29766 0.44338 0 0.93638 0.19224 0.28525 0.11162 0.36277 0.11162 0.0992 0 0.17053-0.0713 0.0744-0.0744 0.0961-0.23255z"/>
  <path d="m192.28 198.41q0.37827 0 0.70383 0.19534 0.32556 0.19533 0.49299 0.555 0.17053 0.35967 0.17053 0.78755 0 0.61702-0.31315 1.0325-0.37828 0.50229-1.0449 0.50229-0.65423 0-1.0077-0.45888-0.35347-0.45889-0.35347-1.0635 0-0.62321 0.35967-1.0852 0.36277-0.46509 0.99219-0.46509zm0.0124 0.22014q-0.15813 0-0.27285 0.12093-0.11162 0.11782-0.14883 0.47128-0.0341 0.35037-0.0341 0.97669 0 0.33176 0.0434 0.62012 0.0341 0.22014 0.14573 0.33486 0.11162 0.11472 0.25425 0.11472 0.13952 0 0.23254-0.0775 0.12092-0.10542 0.16123-0.29456 0.062-0.29455 0.062-1.1906 0-0.5271-0.0589-0.72244-0.0589-0.19844-0.17363-0.28835-0.0806-0.0651-0.21084-0.0651z"/>
  <path d="m195.29 198.49v0.38137q0.23874-0.26045 0.44028-0.36277 0.20464-0.10542 0.44649-0.10542 0.27905 0 0.46818 0.13023 0.18914 0.13022 0.29146 0.39687 0.24805-0.27905 0.47439-0.40308 0.22944-0.12402 0.47749-0.12402 0.30076 0 0.47749 0.13953 0.17983 0.13642 0.24805 0.35036 0.0713 0.21084 0.0713 0.67593v1.1875q0 0.33486 0.0589 0.41547 0.062 0.0806 0.25425 0.10542v0.11163h-1.4976v-0.11163q0.17673-0.0155 0.26045-0.13642 0.0558-0.0837 0.0558-0.38447v-1.2464q0-0.38757-0.031-0.49299t-0.0992-0.15503q-0.0651-0.0527-0.15503-0.0527-0.13332 0-0.26975 0.0992-0.13642 0.0961-0.27595 0.29145v1.5565q0 0.31316 0.0527 0.39377 0.0713 0.11472 0.27285 0.12712v0.11163h-1.5007v-0.11163q0.12092-6e-3 0.18913-0.0589 0.0713-0.0558 0.093-0.13022 0.0248-0.0775 0.0248-0.33176v-1.2464q0-0.39377-0.031-0.49299-0.031-0.0992-0.10542-0.15503-0.0713-0.0558-0.15503-0.0558-0.12402 0-0.22634 0.0651-0.14573 0.0961-0.31006 0.32866v1.5565q0 0.30695 0.0589 0.40617 0.062 0.0961 0.25425 0.11472v0.11163h-1.4945v-0.11163q0.18293-0.0186 0.26044-0.11782 0.0527-0.0682 0.0527-0.40307v-1.6371q0-0.32867-0.062-0.40928-0.0589-0.0806-0.25114-0.10542v-0.11472z"/>
  <path d="m200.5 201.1v1.079q0 0.22325 0.0341 0.30386 0.0372 0.0806 0.11162 0.11782 0.0744 0.0372 0.29145 0.0372v0.11472h-1.6526v-0.11472q0.19224-6e-3 0.28525-0.10852 0.062-0.0713 0.062-0.36897v-3.0603q0-0.30696-0.0713-0.39067-0.0713-0.0868-0.27595-0.0992v-0.11472h1.2154v0.38137q0.15193-0.22324 0.31006-0.32246 0.22634-0.14573 0.49299-0.14573 0.31936 0 0.57981 0.20154 0.26355 0.20154 0.39998 0.5581 0.13642 0.35347 0.13642 0.76275 0 0.44028-0.14262 0.80615-0.13953 0.36277-0.40928 0.55501-0.26665 0.18913-0.59531 0.18913-0.23875 0-0.44649-0.10542-0.15503-0.0806-0.32556-0.27595zm0-0.31316q0.26665 0.37827 0.57051 0.37827 0.16743 0 0.27595-0.17673 0.16123-0.26045 0.16123-0.99219 0-0.75034-0.17673-1.0263-0.11783-0.18294-0.31626-0.18294-0.31316 0-0.5147 0.45269z"/>
  <path d="m204.11 198.49v0.65732q0.28835-0.44958 0.50539-0.59531 0.21704-0.14883 0.41858-0.14883 0.17363 0 0.27595 0.10852 0.10542 0.10542 0.10542 0.30076 0 0.20774-0.10232 0.32246-0.0992 0.11472-0.24184 0.11472-0.16433 0-0.28526-0.10542-0.12092-0.10542-0.14262-0.11782-0.031-0.0186-0.0713-0.0186-0.0899 0-0.17053 0.0682-0.12712 0.10542-0.19224 0.30076-0.0992 0.30075-0.0992 0.66352v0.66663l3e-3 0.17363q0 0.17673 0.0217 0.22634 0.0372 0.0837 0.10852 0.12403 0.0744 0.0372 0.24805 0.0465v0.11163h-1.5658v-0.11163q0.18914-0.0155 0.25425-0.10232 0.0682-0.0899 0.0682-0.46818v-1.603q0-0.24804-0.0248-0.31626-0.031-0.0868-0.0899-0.12712-0.0589-0.0403-0.20774-0.0558v-0.11472z"/>
  <path d="m208.07 199.84h-1.5906q0.0279 0.57671 0.30695 0.91157 0.21394 0.25735 0.5147 0.25735 0.18604 0 0.33797-0.10232 0.15192-0.10542 0.32556-0.37517l0.10542 0.0682q-0.23565 0.48059-0.5209 0.68212-0.28526 0.19844-0.66043 0.19844-0.64492 0-0.97668-0.49609-0.26665-0.39998-0.26665-0.99219 0-0.72554 0.39067-1.1534 0.39378-0.43098 0.92088-0.43098 0.44028 0 0.76274 0.36277 0.32556 0.35967 0.35037 1.0697zm-0.76275-0.20774q0-0.49919-0.0558-0.68523-0.0527-0.18603-0.16743-0.28215-0.0651-0.0558-0.17363-0.0558-0.16123 0-0.26355 0.15813-0.18294 0.27595-0.18294 0.75654v0.10852z"/>
  <path d="m210.26 198.41 0.0465 0.98909h-0.10542q-0.18913-0.44028-0.39377-0.60151-0.20154-0.16123-0.40308-0.16123-0.12712 0-0.21704 0.0868-0.0899 0.0837-0.0899 0.19534 0 0.0837 0.062 0.16123 0.0992 0.12712 0.555 0.43718 0.45579 0.30696 0.59841 0.524 0.14573 0.21394 0.14573 0.48059 0 0.24185-0.12092 0.47439t-0.34106 0.35657q-0.22015 0.12402-0.4868 0.12402-0.20774 0-0.555-0.13022-0.093-0.0341-0.12713-0.0341-0.10232 0-0.17053 0.15503h-0.10232l-0.0496-1.0418h0.10542q0.13953 0.40928 0.38138 0.61392 0.24494 0.20464 0.46198 0.20464 0.14883 0 0.24185-0.0899 0.0961-0.093 0.0961-0.22324 0-0.14883-0.093-0.25735t-0.41548-0.32866q-0.47439-0.32866-0.61392-0.5023-0.20463-0.25425-0.20463-0.5612 0-0.33487 0.22944-0.60462 0.23254-0.27285 0.66973-0.27285 0.23564 0 0.45578 0.11472 0.0837 0.0465 0.13643 0.0465 0.0558 0 0.0899-0.0217 0.0341-0.0248 0.10853-0.13333z"/>
  <path d="m212.73 198.41 0.0465 0.98909h-0.10542q-0.18914-0.44028-0.39377-0.60151-0.20154-0.16123-0.40308-0.16123-0.12712 0-0.21704 0.0868-0.0899 0.0837-0.0899 0.19534 0 0.0837 0.062 0.16123 0.0992 0.12712 0.55501 0.43718 0.45578 0.30696 0.59841 0.524 0.14573 0.21394 0.14573 0.48059 0 0.24185-0.12092 0.47439-0.12093 0.23254-0.34107 0.35657-0.22014 0.12402-0.48679 0.12402-0.20774 0-0.55501-0.13022-0.093-0.0341-0.12712-0.0341-0.10232 0-0.17053 0.15503h-0.10232l-0.0496-1.0418h0.10542q0.13953 0.40928 0.38137 0.61392 0.24495 0.20464 0.46199 0.20464 0.14883 0 0.24184-0.0899 0.0961-0.093 0.0961-0.22324 0-0.14883-0.093-0.25735t-0.41548-0.32866q-0.47439-0.32866-0.61392-0.5023-0.20464-0.25425-0.20464-0.5612 0-0.33487 0.22945-0.60462 0.23254-0.27285 0.66972-0.27285 0.23565 0 0.45579 0.11472 0.0837 0.0465 0.13642 0.0465 0.0558 0 0.0899-0.0217 0.0341-0.0248 0.10852-0.13333z"/>
  <path d="m214.07 197.09q0.20154 0 0.34106 0.14263 0.13953 0.13953 0.13953 0.33796 0 0.19844-0.14263 0.33797-0.13952 0.13952-0.33796 0.13952t-0.33797-0.13952q-0.13952-0.13953-0.13952-0.33797 0-0.19843 0.13952-0.33796 0.13953-0.14263 0.33797-0.14263zm0.43408 1.4046v2.2975q0 0.30696 0.0713 0.39378 0.0713 0.0837 0.27906 0.0961v0.11163h-1.5658v-0.11163q0.19224-6e-3 0.28525-0.11162 0.062-0.0713 0.062-0.37827v-1.6929q0-0.30696-0.0713-0.39067-0.0713-0.0868-0.27595-0.0992v-0.11472z"/>
  <path d="m216.5 198.41q0.37827 0 0.70383 0.19534 0.32557 0.19533 0.493 0.555 0.17053 0.35967 0.17053 0.78755 0 0.61702-0.31316 1.0325-0.37827 0.50229-1.0449 0.50229-0.65422 0-1.0077-0.45888-0.35346-0.45889-0.35346-1.0635 0-0.62321 0.35966-1.0852 0.36277-0.46509 0.99219-0.46509zm0.0124 0.22014q-0.15813 0-0.27285 0.12093-0.11162 0.11782-0.14883 0.47128-0.0341 0.35037-0.0341 0.97669 0 0.33176 0.0434 0.62012 0.0341 0.22014 0.14573 0.33486 0.11162 0.11472 0.25425 0.11472 0.13953 0 0.23254-0.0775 0.12093-0.10542 0.16123-0.29456 0.062-0.29455 0.062-1.1906 0-0.5271-0.0589-0.72244-0.0589-0.19844-0.17364-0.28835-0.0806-0.0651-0.21084-0.0651z"/>
  <path d="m219.49 198.49v0.37517q0.22324-0.24185 0.42788-0.35037 0.20464-0.11162 0.44028-0.11162 0.28216 0 0.46819 0.15813 0.18604 0.15503 0.24805 0.38757 0.0496 0.17674 0.0496 0.67903v1.1286q0 0.33486 0.0589 0.41857 0.062 0.0806 0.25425 0.10232v0.11163h-1.4666v-0.11163q0.16433-0.0217 0.23564-0.13642 0.0496-0.0775 0.0496-0.38447v-1.2898q0-0.35657-0.0279-0.44958-0.0279-0.093-0.0961-0.14263-0.0651-0.0527-0.14573-0.0527-0.26665 0-0.49609 0.38137v1.5534q0 0.32556 0.0589 0.41237 0.062 0.0868 0.22634 0.10852v0.11163h-1.4666v-0.11163q0.18293-0.0186 0.26045-0.11782 0.0527-0.0682 0.0527-0.40307v-1.6371q0-0.32867-0.062-0.40928-0.0589-0.0806-0.25114-0.10542v-0.11472z"/>
 </g>
</svg>
